<?xml version="1.0" encoding="UTF-8" standalone="no"?>
<!-- Created with Inkscape (http://www.inkscape.org/) -->

<svg
   xmlns:dc="http://purl.org/dc/elements/1.1/"
   xmlns:cc="http://creativecommons.org/ns#"
   xmlns:rdf="http://www.w3.org/1999/02/22-rdf-syntax-ns#"
   xmlns:svg="http://www.w3.org/2000/svg"
   xmlns="http://www.w3.org/2000/svg"
   xmlns:sodipodi="http://sodipodi.sourceforge.net/DTD/sodipodi-0.dtd"
   xmlns:inkscape="http://www.inkscape.org/namespaces/inkscape"
   width="171.08565mm"
   height="57.963989mm"
   viewBox="0 0 171.08565 57.963989"
   transform="scale(-1, 1)"
   version="1.1"
   id="svg8"
   sodipodi:docname="FX13_carnew.svg"
   inkscape:version="0.92.1 r15371">
  <defs
     id="defs2" />
  <sodipodi:namedview
     id="base"
     pagecolor="#ffffff"
     bordercolor="#666666"
     borderopacity="1.0"
     inkscape:pageopacity="0.0"
     inkscape:pageshadow="2"
     inkscape:zoom="1.979899"
     inkscape:cx="333.90572"
     inkscape:cy="90.243136"
     inkscape:document-units="mm"
     inkscape:current-layer="layer1"
     showgrid="false"
     inkscape:snap-global="false"
     inkscape:window-width="1920"
     inkscape:window-height="1016"
     inkscape:window-x="0"
     inkscape:window-y="27"
     inkscape:window-maximized="1"
     fit-margin-top="0"
     fit-margin-left="0"
     fit-margin-right="0"
     fit-margin-bottom="0" />
  <metadata
     id="metadata5">
    <rdf:RDF>
      <cc:Work
         rdf:about="">
        <dc:format>image/svg+xml</dc:format>
        <dc:type
           rdf:resource="http://purl.org/dc/dcmitype/StillImage" />
        <dc:title />
      </cc:Work>
    </rdf:RDF>
  </metadata>
  <g
     inkscape:label="Layer 1"
     inkscape:groupmode="layer"
     id="layer1"
     transform="translate(-22.867559,-101.39732)">
    <path
       style="fill:#000000;stroke:none;stroke-width:0.26458332px;stroke-linecap:butt;stroke-linejoin:miter;stroke-opacity:1"
       d="m 74.196165,149.26498 0.67911,3.06097 1.35823,-0.12754 -0.27165,-2.93343 z"
       id="path4531-3-1"
       inkscape:connector-curvature="0" />
    <path
       style="fill:#000000;stroke:none;stroke-width:0.26458332px;stroke-linecap:butt;stroke-linejoin:miter;stroke-opacity:1"
       d="m 182.52798,148.07205 0.67911,3.06097 1.35823,-0.12754 -0.27165,-2.93343 z"
       id="path4531-3"
       inkscape:connector-curvature="0" />
    <path
       style="fill:#ff5555;fill-opacity:1;stroke:none;stroke-width:0.26458332px;stroke-linecap:butt;stroke-linejoin:miter;stroke-opacity:1"
       d="m 31.56101,130.3125 c 1.13393,0.37798 36.096728,-8.50447 35.340774,-8.12649 -0.755952,0.37798 45.924106,-20.78869 45.924106,-20.78869 h 51.78275 l 26.45833,19.46577 0.75595,24.19048 -11.33928,5.85863 H 38.931548 l -13.607143,-7.55952 z"
       id="path4485-5"
       inkscape:connector-curvature="0" />
    <path
       style="fill:#000000;fill-opacity:1;stroke:none;stroke-width:0.99999994px;stroke-linecap:butt;stroke-linejoin:miter;stroke-opacity:1"
       d="m 640,503.51562 a 53.061225,50.075831 0 0 0 -53.06055,50.07618 53.061225,50.075831 0 0 0 3.12696,16.78515 h 92.07617 l 9.3125,-4.8125 A 53.061225,50.075831 0 0 0 693.06055,553.5918 53.061225,50.075831 0 0 0 640,503.51562 Z"
       transform="scale(0.26458333)"
       id="path4485-3"
       inkscape:connector-curvature="0" />
    <path
       style="fill:#00ffff;fill-opacity:1;stroke:none;stroke-width:0.99999994px;stroke-linecap:butt;stroke-linejoin:miter;stroke-opacity:1"
       d="m 230.71484,506.37305 a 53.061225,50.075831 0 0 0 -53.0625,50.07422 53.061225,50.075831 0 0 0 2.1211,13.92968 h 101.86718 a 53.061225,50.075831 0 0 0 2.13477,-13.92968 53.061225,50.075831 0 0 0 -53.06055,-50.07422 z"
       transform="scale(0.26458333)"
       id="path4485"
       inkscape:connector-curvature="0" />
    <path
       style="fill:none;stroke:#000000;stroke-width:0.26458332px;stroke-linecap:butt;stroke-linejoin:miter;stroke-opacity:1"
       d="m 112.25893,104.23214 -37.608633,18.89881 86.934523,-3.77976 v -14.74107 c 0,0 -49.1369,-0.75596 -49.32589,-0.37798 z"
       id="path4495"
       inkscape:connector-curvature="0" />
    <path
       style="fill:#d7eef4;fill-opacity:1;stroke:#000000;stroke-width:0.26458332px;stroke-linecap:butt;stroke-linejoin:miter;stroke-opacity:1"
       d="m 163.74001,104.99955 0.38944,12.55903 c 0,0 12.88328,-0.25579 17.40589,-0.48868 -0.75595,-0.56697 -17.79533,-12.07035 -17.79533,-12.07035 z"
       id="path4497"
       inkscape:connector-curvature="0"
       sodipodi:nodetypes="cccc" />
    <path
       style="fill:#f2f2f2;stroke:#000000;stroke-width:0.26458332px;stroke-linecap:butt;stroke-linejoin:miter;stroke-opacity:1"
       d="m 33.261905,131.25744 7.370535,-0.18899 -3.023809,7.18155 -6.992559,-0.56697 z"
       id="path4499"
       inkscape:connector-curvature="0" />
    <path
       style="fill:#ffdd55;stroke:#000000;stroke-width:0.26458332px;stroke-linecap:butt;stroke-linejoin:miter;stroke-opacity:1"
       d="m 34.017857,146.37649 4.346726,-0.94494 2.078868,3.96875 -3.023809,-0.37798 z"
       id="path4501"
       inkscape:connector-curvature="0" />
    <path
       style="fill:#ffdd55;fill-opacity:1;stroke:#000000;stroke-width:0.26458332px;stroke-linecap:butt;stroke-linejoin:miter;stroke-opacity:1"
       d="m 69.137218,131.45592 v 3.02381 l 5.102677,-0.18898 0.18899,-3.02382 z"
       id="path4503"
       inkscape:connector-curvature="0" />
    <path
       style="fill:#ff0000;stroke:#000000;stroke-width:0.26458332px;stroke-linecap:butt;stroke-linejoin:miter;stroke-opacity:1"
       d="m 191.06696,125.39881 -7.74851,-0.37798 2.45685,7.9375 5.66964,-0.37798 z"
       id="path4507"
       inkscape:connector-curvature="0" />
    <path
       style="fill:#000000;stroke:none;stroke-width:0.26458332px;stroke-linecap:butt;stroke-linejoin:miter;stroke-opacity:1"
       d="m 183.31845,137.09315 c 0.77063,-0.18899 10.63475,-0.37798 10.63475,-0.37798 l -0.30824,2.83482 -10.01825,-0.37798 z"
       id="path4509"
       inkscape:connector-curvature="0" />
    <path
       style="fill:#000000;stroke:none;stroke-width:0.26458332px;stroke-linecap:butt;stroke-linejoin:miter;stroke-opacity:1"
       d="m 24.568452,140.13988 h 10.394346 l -2.834823,3.40178 -9.260416,-0.75595 z"
       id="path4511"
       inkscape:connector-curvature="0" />
    <path
       style="fill:none;stroke:#000000;stroke-width:0.26458332px;stroke-linecap:butt;stroke-linejoin:miter;stroke-opacity:1"
       d="m 107.72321,129.17857 c 1.32292,-0.18899 8.12649,-0.37798 8.12649,-0.37798 l 0.18899,1.88989 h -8.69345 z"
       id="path4515"
       inkscape:connector-curvature="0" />
    <path
       style="fill:none;stroke:#000000;stroke-width:0.26458332px;stroke-linecap:butt;stroke-linejoin:miter;stroke-opacity:1"
       d="m 151.60087,127.56742 c 0.75596,-0.18899 7.07085,-0.32262 7.07085,-0.32262 l -0.11071,1.55579 -7.37054,0.18899 z"
       id="path4519"
       inkscape:connector-curvature="0"
       sodipodi:nodetypes="ccccc" />
    <path
       style="fill:#d7eef4;stroke:#000000;stroke-width:0.26458332px;stroke-linecap:butt;stroke-linejoin:miter;stroke-opacity:1"
       d="m 89.580356,118.02827 c 1.322917,-1.13393 23.812504,-12.28422 23.812504,-12.28422 l 17.57589,-0.37798 -0.94494,13.41816 -39.498513,2.26785 z"
       id="path4521"
       inkscape:connector-curvature="0" />
    <path
       style="fill:#d7eef4;fill-opacity:1;stroke:#000000;stroke-width:0.26458332px;stroke-linecap:butt;stroke-linejoin:miter;stroke-opacity:1"
       d="m 133.10298,105.13122 0.13363,13.46402 27.07115,-0.94494 -0.21192,-11.70776 z"
       id="path4523"
       inkscape:connector-curvature="0"
       sodipodi:nodetypes="ccccc" />
    <path
       style="fill:none;stroke:#000000;stroke-width:0.26458332px;stroke-linecap:butt;stroke-linejoin:miter;stroke-opacity:1"
       d="m 79.941964,122.75298 0.944941,24.56845 c 0,0 46.254835,-0.28349 49.514875,-0.47247 0.0472,-1.13393 1.51191,-26.17486 1.51191,-26.17486"
       id="path4525"
       inkscape:connector-curvature="0"
       sodipodi:nodetypes="cccc" />
    <path
       style="fill:none;stroke:#000000;stroke-width:0.26458332px;stroke-linecap:butt;stroke-linejoin:miter;stroke-opacity:1"
       d="m 130.44903,146.80171 c 3.11831,-0.14174 20.93044,-0.99219 20.93044,-0.99219 0,0 3.00033,-7.2522 5.40978,-10.86681 2.40946,-3.61462 9.00056,-10.20536 9.00056,-10.20536 l -4.25224,-5.43341"
       id="path4527"
       inkscape:connector-curvature="0"
       sodipodi:nodetypes="cczcc" />
    <path
       style="fill:none;stroke:#000000;stroke-width:0.26458332px;stroke-linecap:butt;stroke-linejoin:miter;stroke-opacity:1"
       d="m 46.302083,130.69048 c 1.322916,0 62.177087,-4.53572 78.052087,-5.29167 15.87499,-0.75596 55.94047,-0.75596 55.94047,-0.75596"
       id="path4529"
       inkscape:connector-curvature="0"
       sodipodi:nodetypes="csc" />
    <ellipse
       style="opacity:1;fill:#aaffbb;fill-opacity:1;stroke:none;stroke-width:2.56500006;stroke-linecap:round;stroke-linejoin:round;stroke-miterlimit:4;stroke-dasharray:none;stroke-opacity:1"
       id="path4593"
       cx="61.043156"
       cy="147.22693"
       rx="12.716199"
       ry="12.000745" />
    <ellipse
       style="opacity:1;fill:#e3dbdb;fill-opacity:1;stroke:none;stroke-width:2.56500006;stroke-linecap:round;stroke-linejoin:round;stroke-miterlimit:4;stroke-dasharray:none;stroke-opacity:1"
       id="path4593-6"
       cx="61.043156"
       cy="147.22693"
       rx="7.046556"
       ry="6.650094" />
    <path
       inkscape:connector-curvature="0"
       style="fill:#000000;fill-opacity:1;stroke:none;stroke-width:0.26458332px;stroke-linecap:butt;stroke-linejoin:miter;stroke-opacity:1"
       d="m 61.043301,133.97787 a 14.039116,13.24923 0 0 0 -14.039453,13.2488 14.039116,13.24923 0 0 0 0.561208,3.68556 h 26.952358 a 14.039116,13.24923 0 0 0 0.564824,-3.68556 14.039116,13.24923 0 0 0 -14.038937,-13.2488 z"
       id="path4485-36" />
    <ellipse
       style="opacity:1;fill:#666666;fill-opacity:1;stroke:none;stroke-width:2.56500006;stroke-linecap:round;stroke-linejoin:round;stroke-miterlimit:4;stroke-dasharray:none;stroke-opacity:1"
       id="path4593-0"
       cx="61.043156"
       cy="147.22693"
       rx="12.716199"
       ry="12.000745" />
    <ellipse
       style="opacity:1;fill:#e3dbdb;fill-opacity:1;stroke:#000000;stroke-width:0.30000001;stroke-linecap:round;stroke-linejoin:round;stroke-miterlimit:4;stroke-dasharray:none;stroke-opacity:1"
       id="path4593-6-6"
       cx="61.043156"
       cy="147.22693"
       rx="7.046556"
       ry="6.650094" />
    <ellipse
       style="opacity:1;fill:#666666;fill-opacity:1;stroke:none;stroke-width:2.56500006;stroke-linecap:round;stroke-linejoin:round;stroke-miterlimit:4;stroke-dasharray:none;stroke-opacity:1"
       id="path4593-0-2"
       cx="169.15367"
       cy="147.36057"
       rx="12.716199"
       ry="12.000745" />
    <ellipse
       style="opacity:1;fill:#e3dbdb;fill-opacity:1;stroke:none;stroke-width:1.39999998;stroke-linecap:round;stroke-linejoin:round;stroke-miterlimit:4;stroke-dasharray:none;stroke-opacity:1"
       id="path4593-6-6-6"
       cx="169.15367"
       cy="147.22693"
       rx="7.046556"
       ry="6.650094" />
    <path
       style="fill:none;stroke:#000000;stroke-width:0.26458332px;stroke-linecap:butt;stroke-linejoin:miter;stroke-opacity:1"
       d="m 131.91369,120.6741 -0.067,-16.57077"
       id="path4510"
       inkscape:connector-curvature="0" />
    <path
       style="fill:#666666;fill-opacity:1;stroke:#000000;stroke-width:0.26458332px;stroke-linecap:butt;stroke-linejoin:miter;stroke-opacity:1"
       d="m 87.814053,117.53363 c -0.668173,0.4009 -5.87993,1.87088 -3.741774,4.27631 2.138156,2.40543 6.853922,1.51393 6.853922,1.51393 z"
       id="path4512"
       inkscape:connector-curvature="0" />
  </g>
</svg>
